<svg width="24" height="19" viewBox="0 0 24 19" fill="none" xmlns="http://www.w3.org/2000/svg">
<path d="M0 2.08203C0 0.977462 0.895431 0.0820312 2 0.0820312H22C23.1046 0.0820312 24 0.977462 24 2.08203V16.082C24 17.1866 23.1046 18.082 22 18.082H2C0.89543 18.082 0 17.1866 0 16.082V2.08203Z" fill="#012169"/>
<path fill-rule="evenodd" clip-rule="evenodd" d="M2 0.0820312C0.895431 0.0820312 0 0.977462 0 2.08203V2.48203L8.9625 9.15703L0 15.832V16.082C0 17.1866 0.89543 18.082 2 18.082H3.0375L12 11.3695L21 18.082H22C23.1046 18.082 24 17.1866 24 16.082V15.7945L15 9.11953L24 2.40703V2.08203C24 0.977462 23.1046 0.0820312 22 0.0820312H21.075L11.9625 6.86953L2.8125 0.0820312H2Z" fill="white"/>
<path fill-rule="evenodd" clip-rule="evenodd" d="M1.99998 18.082H2.02498L9.22498 12.682L8.99998 11.3695L0.674008 17.5793C1.02695 17.8921 1.49129 18.082 1.99998 18.082ZM23.9467 16.5428C23.85 16.9528 23.627 17.3142 23.3212 17.5835L13.8375 10.6195H15.9L23.9467 16.5428ZM22.1202 0.0855713C22.6158 0.114955 23.0628 0.324767 23.3964 0.650231L14.6625 7.24452L14.7375 5.59452L22.1202 0.0855713ZM0.0391235 1.68632C0.126727 1.24982 0.356434 0.864693 0.677932 0.581258L8.96248 6.68202H6.71248L0.0391235 1.68632Z" fill="#C8102E"/>
<path d="M9.0375 0.0820312V18.082H15.0375V0.0820312H9.0375ZM0 6.08203V12.082H24V6.08203H0Z" fill="white"/>
<path d="M0 7.31953V10.9195H24V7.31953H0ZM10.2375 0.0820312V18.082H13.8375V0.0820312H10.2375Z" fill="#C8102E"/>
<path fill-rule="evenodd" clip-rule="evenodd" d="M22 0.782031H2C1.28203 0.782031 0.7 1.36406 0.7 2.08203V16.082C0.7 16.8 1.28203 17.382 2 17.382H22C22.718 17.382 23.3 16.8 23.3 16.082V2.08203C23.3 1.36406 22.718 0.782031 22 0.782031ZM2 0.0820312C0.895431 0.0820312 0 0.977462 0 2.08203V16.082C0 17.1866 0.89543 18.082 2 18.082H22C23.1046 18.082 24 17.1866 24 16.082V2.08203C24 0.977462 23.1046 0.0820312 22 0.0820312H2Z" fill="#DFDFDF"/>
</svg>
